<?xml version="1.0" encoding="UTF-8" standalone="no"?>
<!DOCTYPE svg PUBLIC "-//W3C//DTD SVG 1.1//EN"
 "http://www.w3.org/Graphics/SVG/1.1/DTD/svg11.dtd">
<!-- Generated by graphviz version 2.40.1 (20161225.0304)
 -->
<!-- Title: dependencies Pages: 1 -->
<svg width="504pt" height="211pt"
 viewBox="0.00 0.00 504.00 211.00" xmlns="http://www.w3.org/2000/svg" xmlns:xlink="http://www.w3.org/1999/xlink">
<g id="graph0" class="graph" transform="scale(1 1) rotate(0) translate(4 207)">
<title>dependencies</title>
<polygon fill="#ffffff" stroke="transparent" points="-4,4 -4,-207 500,-207 500,4 -4,4"/>
<text text-anchor="start" x="227.0091" y="-42.4" font-family="sans-serif" font-weight="bold" font-size="14.00" fill="#000000">Legend</text>
<polygon fill="#ffffb3" stroke="transparent" points="14,-10 14,-30 34,-30 34,-10 14,-10"/>
<text text-anchor="start" x="37.629" y="-15.4" font-family="sans-serif" font-size="14.00" fill="#000000"> &#160;Declarations</text>
<polygon fill="#8dd3c7" stroke="transparent" points="127,-10 127,-30 147,-30 147,-10 127,-10"/>
<text text-anchor="start" x="150.7251" y="-15.4" font-family="sans-serif" font-size="14.00" fill="#000000"> &#160;Module</text>
<polygon fill="#80b1d3" stroke="transparent" points="213,-10 213,-30 233,-30 233,-10 213,-10"/>
<text text-anchor="start" x="236.7812" y="-15.4" font-family="sans-serif" font-size="14.00" fill="#000000"> &#160;Bootstrap</text>
<polygon fill="#fdb462" stroke="transparent" points="310,-10 310,-30 330,-30 330,-10 310,-10"/>
<text text-anchor="start" x="333.6732" y="-15.4" font-family="sans-serif" font-size="14.00" fill="#000000"> &#160;Providers</text>
<polygon fill="#fb8072" stroke="transparent" points="406,-10 406,-30 426,-30 426,-10 406,-10"/>
<text text-anchor="start" x="429.7258" y="-15.4" font-family="sans-serif" font-size="14.00" fill="#000000"> &#160;Exports</text>
<g id="clust1" class="cluster">
<title>cluster_PostsModule</title>
<polygon fill="none" stroke="#000000" stroke-dasharray="1,5" points="87,-70 87,-195 409,-195 409,-70 87,-70"/>
</g>
<g id="clust2" class="cluster">
<title>cluster_PostsModule_declarations</title>
<polygon fill="none" stroke="#000000" points="95,-78 95,-130 401,-130 401,-78 95,-78"/>
</g>
<!-- PostDetailComponent -->
<g id="node1" class="node">
<title>PostDetailComponent</title>
<polygon fill="#ffffb3" stroke="#000000" points="392.6582,-122 253.3418,-122 253.3418,-86 392.6582,-86 392.6582,-122"/>
<text text-anchor="middle" x="323" y="-99.8" font-family="Times,serif" font-size="14.00" fill="#000000">PostDetailComponent</text>
</g>
<!-- PostsModule -->
<g id="node3" class="node">
<title>PostsModule</title>
<polygon fill="#8dd3c7" stroke="#000000" points="290.6123,-187 287.6123,-191 266.6123,-191 263.6123,-187 201.3877,-187 201.3877,-151 290.6123,-151 290.6123,-187"/>
<text text-anchor="middle" x="246" y="-164.8" font-family="Times,serif" font-size="14.00" fill="#000000">PostsModule</text>
</g>
<!-- PostDetailComponent&#45;&gt;PostsModule -->
<g id="edge1" class="edge">
<title>PostDetailComponent&#45;&gt;PostsModule</title>
<path fill="none" stroke="#000000" d="M271.8636,-122.1061C271.8636,-122.1061 271.8636,-140.991 271.8636,-140.991"/>
<polygon fill="#000000" stroke="#000000" points="268.3637,-140.9909 271.8636,-150.991 275.3637,-140.991 268.3637,-140.9909"/>
</g>
<!-- PostsListComponent -->
<g id="node2" class="node">
<title>PostsListComponent</title>
<polygon fill="#ffffb3" stroke="#000000" points="235.1736,-122 102.8264,-122 102.8264,-86 235.1736,-86 235.1736,-122"/>
<text text-anchor="middle" x="169" y="-99.8" font-family="Times,serif" font-size="14.00" fill="#000000">PostsListComponent</text>
</g>
<!-- PostsListComponent&#45;&gt;PostsModule -->
<g id="edge2" class="edge">
<title>PostsListComponent&#45;&gt;PostsModule</title>
<path fill="none" stroke="#000000" d="M218.3903,-122.1061C218.3903,-122.1061 218.3903,-140.991 218.3903,-140.991"/>
<polygon fill="#000000" stroke="#000000" points="214.8903,-140.9909 218.3903,-150.991 221.8903,-140.991 214.8903,-140.9909"/>
</g>
</g>
</svg>
