<?xml version="1.0" encoding="UTF-8" standalone="no"?>
<!DOCTYPE svg PUBLIC "-//W3C//DTD SVG 1.1//EN"
 "http://www.w3.org/Graphics/SVG/1.1/DTD/svg11.dtd">
<!-- Generated by graphviz version 2.40.1 (20161225.0304)
 -->
<!-- Title: dependencies Pages: 1 -->
<svg width="734pt" height="211pt"
 viewBox="0.00 0.00 734.00 211.00" xmlns="http://www.w3.org/2000/svg" xmlns:xlink="http://www.w3.org/1999/xlink">
<g id="graph0" class="graph" transform="scale(1 1) rotate(0) translate(4 207)">
<title>dependencies</title>
<polygon fill="#ffffff" stroke="transparent" points="-4,4 -4,-207 730,-207 730,4 -4,4"/>
<text text-anchor="start" x="342.0091" y="-42.4" font-family="sans-serif" font-weight="bold" font-size="14.00" fill="#000000">Legend</text>
<polygon fill="#ffffb3" stroke="transparent" points="129,-10 129,-30 149,-30 149,-10 129,-10"/>
<text text-anchor="start" x="152.629" y="-15.4" font-family="sans-serif" font-size="14.00" fill="#000000"> &#160;Declarations</text>
<polygon fill="#8dd3c7" stroke="transparent" points="242,-10 242,-30 262,-30 262,-10 242,-10"/>
<text text-anchor="start" x="265.7251" y="-15.4" font-family="sans-serif" font-size="14.00" fill="#000000"> &#160;Module</text>
<polygon fill="#80b1d3" stroke="transparent" points="328,-10 328,-30 348,-30 348,-10 328,-10"/>
<text text-anchor="start" x="351.7812" y="-15.4" font-family="sans-serif" font-size="14.00" fill="#000000"> &#160;Bootstrap</text>
<polygon fill="#fdb462" stroke="transparent" points="425,-10 425,-30 445,-30 445,-10 425,-10"/>
<text text-anchor="start" x="448.6732" y="-15.4" font-family="sans-serif" font-size="14.00" fill="#000000"> &#160;Providers</text>
<polygon fill="#fb8072" stroke="transparent" points="521,-10 521,-30 541,-30 541,-10 521,-10"/>
<text text-anchor="start" x="544.7258" y="-15.4" font-family="sans-serif" font-size="14.00" fill="#000000"> &#160;Exports</text>
<g id="clust1" class="cluster">
<title>cluster_PostsModule</title>
<polygon fill="none" stroke="#000000" stroke-dasharray="1,5" points="8,-70 8,-195 718,-195 718,-70 8,-70"/>
</g>
<g id="clust2" class="cluster">
<title>cluster_PostsModule_declarations</title>
<polygon fill="none" stroke="#000000" points="244,-78 244,-130 710,-130 710,-78 244,-78"/>
</g>
<g id="clust9" class="cluster">
<title>cluster_PostsModule_providers</title>
<polygon fill="none" stroke="#000000" points="16,-78 16,-130 236,-130 236,-78 16,-78"/>
</g>
<!-- CreatePostComponent -->
<g id="node1" class="node">
<title>CreatePostComponent</title>
<polygon fill="#ffffb3" stroke="#000000" points="701.9818,-122 560.0182,-122 560.0182,-86 701.9818,-86 701.9818,-122"/>
<text text-anchor="middle" x="631" y="-99.8" font-family="Times,serif" font-size="14.00" fill="#000000">CreatePostComponent</text>
</g>
<!-- PostsModule -->
<g id="node4" class="node">
<title>PostsModule</title>
<polygon fill="#8dd3c7" stroke="#000000" points="439.6123,-187 436.6123,-191 415.6123,-191 412.6123,-187 350.3877,-187 350.3877,-151 439.6123,-151 439.6123,-187"/>
<text text-anchor="middle" x="395" y="-164.8" font-family="Times,serif" font-size="14.00" fill="#000000">PostsModule</text>
</g>
<!-- CreatePostComponent&#45;&gt;PostsModule -->
<g id="edge1" class="edge">
<title>CreatePostComponent&#45;&gt;PostsModule</title>
<path fill="none" stroke="#000000" d="M631,-122.1061C631,-141.3391 631,-169 631,-169 631,-169 449.6672,-169 449.6672,-169"/>
<polygon fill="#000000" stroke="#000000" points="449.6673,-165.5001 439.6672,-169 449.6672,-172.5001 449.6673,-165.5001"/>
</g>
<!-- PostDetailComponent -->
<g id="node2" class="node">
<title>PostDetailComponent</title>
<polygon fill="#ffffb3" stroke="#000000" points="541.6582,-122 402.3418,-122 402.3418,-86 541.6582,-86 541.6582,-122"/>
<text text-anchor="middle" x="472" y="-99.8" font-family="Times,serif" font-size="14.00" fill="#000000">PostDetailComponent</text>
</g>
<!-- PostDetailComponent&#45;&gt;PostsModule -->
<g id="edge2" class="edge">
<title>PostDetailComponent&#45;&gt;PostsModule</title>
<path fill="none" stroke="#000000" d="M420.8636,-122.1061C420.8636,-122.1061 420.8636,-140.991 420.8636,-140.991"/>
<polygon fill="#000000" stroke="#000000" points="417.3637,-140.9909 420.8636,-150.991 424.3637,-140.991 417.3637,-140.9909"/>
</g>
<!-- PostsListComponent -->
<g id="node3" class="node">
<title>PostsListComponent</title>
<polygon fill="#ffffb3" stroke="#000000" points="384.1736,-122 251.8264,-122 251.8264,-86 384.1736,-86 384.1736,-122"/>
<text text-anchor="middle" x="318" y="-99.8" font-family="Times,serif" font-size="14.00" fill="#000000">PostsListComponent</text>
</g>
<!-- PostsListComponent&#45;&gt;PostsModule -->
<g id="edge3" class="edge">
<title>PostsListComponent&#45;&gt;PostsModule</title>
<path fill="none" stroke="#000000" d="M367.3903,-122.1061C367.3903,-122.1061 367.3903,-140.991 367.3903,-140.991"/>
<polygon fill="#000000" stroke="#000000" points="363.8903,-140.9909 367.3903,-150.991 370.8903,-140.991 363.8903,-140.9909"/>
</g>
<!-- AuthInterceptorService -->
<g id="node5" class="node">
<title>AuthInterceptorService</title>
<ellipse fill="#fdb462" stroke="#000000" cx="126" cy="-104" rx="101.8225" ry="18"/>
<text text-anchor="middle" x="126" y="-99.8" font-family="Times,serif" font-size="14.00" fill="#000000">AuthInterceptorService</text>
</g>
<!-- AuthInterceptorService&#45;&gt;PostsModule -->
<g id="edge4" class="edge">
<title>AuthInterceptorService&#45;&gt;PostsModule</title>
<path fill="none" stroke="#000000" d="M126,-122.1061C126,-141.3391 126,-169 126,-169 126,-169 340.2782,-169 340.2782,-169"/>
<polygon fill="#000000" stroke="#000000" points="340.2782,-172.5001 350.2782,-169 340.2781,-165.5001 340.2782,-172.5001"/>
</g>
</g>
</svg>
