<?xml version="1.0" encoding="UTF-8" standalone="no"?>
<!DOCTYPE svg PUBLIC "-//W3C//DTD SVG 1.1//EN"
 "http://www.w3.org/Graphics/SVG/1.1/DTD/svg11.dtd">
<!-- Generated by graphviz version 2.40.1 (20161225.0304)
 -->
<!-- Title: dependencies Pages: 1 -->
<svg width="624pt" height="284pt"
 viewBox="0.00 0.00 624.00 284.00" xmlns="http://www.w3.org/2000/svg" xmlns:xlink="http://www.w3.org/1999/xlink">
<g id="graph0" class="graph" transform="scale(1 1) rotate(0) translate(4 280)">
<title>dependencies</title>
<polygon fill="#ffffff" stroke="transparent" points="-4,4 -4,-280 620,-280 620,4 -4,4"/>
<text text-anchor="start" x="287.0091" y="-42.4" font-family="sans-serif" font-weight="bold" font-size="14.00" fill="#000000">Legend</text>
<polygon fill="#ffffb3" stroke="transparent" points="74,-10 74,-30 94,-30 94,-10 74,-10"/>
<text text-anchor="start" x="97.629" y="-15.4" font-family="sans-serif" font-size="14.00" fill="#000000"> &#160;Declarations</text>
<polygon fill="#8dd3c7" stroke="transparent" points="187,-10 187,-30 207,-30 207,-10 187,-10"/>
<text text-anchor="start" x="210.7251" y="-15.4" font-family="sans-serif" font-size="14.00" fill="#000000"> &#160;Module</text>
<polygon fill="#80b1d3" stroke="transparent" points="273,-10 273,-30 293,-30 293,-10 273,-10"/>
<text text-anchor="start" x="296.7812" y="-15.4" font-family="sans-serif" font-size="14.00" fill="#000000"> &#160;Bootstrap</text>
<polygon fill="#fdb462" stroke="transparent" points="370,-10 370,-30 390,-30 390,-10 370,-10"/>
<text text-anchor="start" x="393.6732" y="-15.4" font-family="sans-serif" font-size="14.00" fill="#000000"> &#160;Providers</text>
<polygon fill="#fb8072" stroke="transparent" points="466,-10 466,-30 486,-30 486,-10 466,-10"/>
<text text-anchor="start" x="489.7258" y="-15.4" font-family="sans-serif" font-size="14.00" fill="#000000"> &#160;Exports</text>
<g id="clust1" class="cluster">
<title>cluster_AppModule</title>
<polygon fill="none" stroke="#000000" stroke-dasharray="1,5" points="8,-70 8,-268 608,-268 608,-70 8,-70"/>
</g>
<g id="clust2" class="cluster">
<title>cluster_AppModule_declarations</title>
<polygon fill="none" stroke="#000000" points="478,-78 478,-130 600,-130 600,-78 478,-78"/>
</g>
<g id="clust4" class="cluster">
<title>cluster_AppModule_imports</title>
<polygon fill="none" stroke="#000000" points="244,-78 244,-130 470,-130 470,-78 244,-78"/>
</g>
<g id="clust6" class="cluster">
<title>cluster_AppModule_bootstrap</title>
<polygon fill="none" stroke="#000000" points="299,-208 299,-260 423,-260 423,-208 299,-208"/>
</g>
<g id="clust7" class="cluster">
<title>cluster_AppModule_providers</title>
<polygon fill="none" stroke="#000000" points="16,-78 16,-130 236,-130 236,-78 16,-78"/>
</g>
<!-- AppComponent -->
<g id="node1" class="node">
<title>AppComponent</title>
<polygon fill="#ffffb3" stroke="#000000" points="591.9399,-122 486.0601,-122 486.0601,-86 591.9399,-86 591.9399,-122"/>
<text text-anchor="middle" x="539" y="-99.8" font-family="Times,serif" font-size="14.00" fill="#000000">AppComponent</text>
</g>
<!-- AppModule -->
<g id="node2" class="node">
<title>AppModule</title>
<polygon fill="#8dd3c7" stroke="#000000" points="402.6571,-187 399.6571,-191 378.6571,-191 375.6571,-187 319.3429,-187 319.3429,-151 402.6571,-151 402.6571,-187"/>
<text text-anchor="middle" x="361" y="-164.8" font-family="Times,serif" font-size="14.00" fill="#000000">AppModule</text>
</g>
<!-- AppComponent&#45;&gt;AppModule -->
<g id="edge1" class="edge">
<title>AppComponent&#45;&gt;AppModule</title>
<path fill="none" stroke="#000000" d="M539,-122.1061C539,-141.3391 539,-169 539,-169 539,-169 412.7331,-169 412.7331,-169"/>
<polygon fill="#000000" stroke="#000000" points="412.7331,-165.5001 402.7331,-169 412.7331,-172.5001 412.7331,-165.5001"/>
</g>
<!-- AppComponent  -->
<g id="node5" class="node">
<title>AppComponent </title>
<polygon fill="#80b1d3" stroke="#000000" points="415.439,-252 306.561,-252 306.561,-216 415.439,-216 415.439,-252"/>
<text text-anchor="middle" x="361" y="-229.8" font-family="Times,serif" font-size="14.00" fill="#000000">AppComponent </text>
</g>
<!-- AppModule&#45;&gt;AppComponent  -->
<g id="edge4" class="edge">
<title>AppModule&#45;&gt;AppComponent </title>
<path fill="none" stroke="#000000" stroke-dasharray="1,5" d="M361,-187.1061C361,-187.1061 361,-205.991 361,-205.991"/>
<polygon fill="#000000" stroke="#000000" points="357.5001,-205.9909 361,-215.991 364.5001,-205.991 357.5001,-205.9909"/>
</g>
<!-- AuthModule -->
<g id="node3" class="node">
<title>AuthModule</title>
<polygon fill="#8dd3c7" stroke="#000000" points="461.5482,-122 458.5482,-126 437.5482,-126 434.5482,-122 374.4518,-122 374.4518,-86 461.5482,-86 461.5482,-122"/>
<text text-anchor="middle" x="418" y="-99.8" font-family="Times,serif" font-size="14.00" fill="#000000">AuthModule</text>
</g>
<!-- AuthModule&#45;&gt;AppModule -->
<g id="edge2" class="edge">
<title>AuthModule&#45;&gt;AppModule</title>
<path fill="none" stroke="#000000" d="M388.5273,-122.1061C388.5273,-122.1061 388.5273,-140.991 388.5273,-140.991"/>
<polygon fill="#000000" stroke="#000000" points="385.0274,-140.9909 388.5273,-150.991 392.0274,-140.991 385.0274,-140.9909"/>
</g>
<!-- LayoutsModule -->
<g id="node4" class="node">
<title>LayoutsModule</title>
<polygon fill="#8dd3c7" stroke="#000000" points="356.1528,-122 353.1528,-126 332.1528,-126 329.1528,-122 251.8472,-122 251.8472,-86 356.1528,-86 356.1528,-122"/>
<text text-anchor="middle" x="304" y="-99.8" font-family="Times,serif" font-size="14.00" fill="#000000">LayoutsModule</text>
</g>
<!-- LayoutsModule&#45;&gt;AppModule -->
<g id="edge3" class="edge">
<title>LayoutsModule&#45;&gt;AppModule</title>
<path fill="none" stroke="#000000" d="M337.749,-122.1061C337.749,-122.1061 337.749,-140.991 337.749,-140.991"/>
<polygon fill="#000000" stroke="#000000" points="334.249,-140.9909 337.749,-150.991 341.249,-140.991 334.249,-140.9909"/>
</g>
<!-- AuthInterceptorService -->
<g id="node6" class="node">
<title>AuthInterceptorService</title>
<ellipse fill="#fdb462" stroke="#000000" cx="126" cy="-104" rx="101.8225" ry="18"/>
<text text-anchor="middle" x="126" y="-99.8" font-family="Times,serif" font-size="14.00" fill="#000000">AuthInterceptorService</text>
</g>
<!-- AuthInterceptorService&#45;&gt;AppModule -->
<g id="edge5" class="edge">
<title>AuthInterceptorService&#45;&gt;AppModule</title>
<path fill="none" stroke="#000000" d="M126,-122.1061C126,-141.3391 126,-169 126,-169 126,-169 309.2575,-169 309.2575,-169"/>
<polygon fill="#000000" stroke="#000000" points="309.2575,-172.5001 319.2575,-169 309.2575,-165.5001 309.2575,-172.5001"/>
</g>
</g>
</svg>
