<?xml version="1.0" encoding="UTF-8" standalone="no"?>
<!DOCTYPE svg PUBLIC "-//W3C//DTD SVG 1.1//EN"
 "http://www.w3.org/Graphics/SVG/1.1/DTD/svg11.dtd">
<!-- Generated by graphviz version 2.40.1 (20161225.0304)
 -->
<!-- Title: dependencies Pages: 1 -->
<svg width="504pt" height="284pt"
 viewBox="0.00 0.00 504.00 284.00" xmlns="http://www.w3.org/2000/svg" xmlns:xlink="http://www.w3.org/1999/xlink">
<g id="graph0" class="graph" transform="scale(1 1) rotate(0) translate(4 280)">
<title>dependencies</title>
<polygon fill="#ffffff" stroke="transparent" points="-4,4 -4,-280 500,-280 500,4 -4,4"/>
<text text-anchor="start" x="227.0091" y="-42.4" font-family="sans-serif" font-weight="bold" font-size="14.00" fill="#000000">Legend</text>
<polygon fill="#ffffb3" stroke="transparent" points="14,-10 14,-30 34,-30 34,-10 14,-10"/>
<text text-anchor="start" x="37.629" y="-15.4" font-family="sans-serif" font-size="14.00" fill="#000000"> &#160;Declarations</text>
<polygon fill="#8dd3c7" stroke="transparent" points="127,-10 127,-30 147,-30 147,-10 127,-10"/>
<text text-anchor="start" x="150.7251" y="-15.4" font-family="sans-serif" font-size="14.00" fill="#000000"> &#160;Module</text>
<polygon fill="#80b1d3" stroke="transparent" points="213,-10 213,-30 233,-30 233,-10 213,-10"/>
<text text-anchor="start" x="236.7812" y="-15.4" font-family="sans-serif" font-size="14.00" fill="#000000"> &#160;Bootstrap</text>
<polygon fill="#fdb462" stroke="transparent" points="310,-10 310,-30 330,-30 330,-10 310,-10"/>
<text text-anchor="start" x="333.6732" y="-15.4" font-family="sans-serif" font-size="14.00" fill="#000000"> &#160;Providers</text>
<polygon fill="#fb8072" stroke="transparent" points="406,-10 406,-30 426,-30 426,-10 406,-10"/>
<text text-anchor="start" x="429.7258" y="-15.4" font-family="sans-serif" font-size="14.00" fill="#000000"> &#160;Exports</text>
<g id="clust1" class="cluster">
<title>cluster_LayoutsModule</title>
<polygon fill="none" stroke="#000000" stroke-dasharray="1,5" points="67,-70 67,-268 429,-268 429,-70 67,-70"/>
</g>
<g id="clust2" class="cluster">
<title>cluster_LayoutsModule_declarations</title>
<polygon fill="none" stroke="#000000" points="78,-78 78,-130 418,-130 418,-78 78,-78"/>
</g>
<g id="clust6" class="cluster">
<title>cluster_LayoutsModule_exports</title>
<polygon fill="none" stroke="#000000" points="75,-208 75,-260 421,-260 421,-208 75,-208"/>
</g>
<!-- AppLayoutComponent -->
<g id="node1" class="node">
<title>AppLayoutComponent</title>
<polygon fill="#ffffb3" stroke="#000000" points="409.5968,-122 264.4032,-122 264.4032,-86 409.5968,-86 409.5968,-122"/>
<text text-anchor="middle" x="337" y="-99.8" font-family="Times,serif" font-size="14.00" fill="#000000">AppLayoutComponent</text>
</g>
<!-- LayoutsModule -->
<g id="node3" class="node">
<title>LayoutsModule</title>
<polygon fill="#8dd3c7" stroke="#000000" points="219.1528,-187 216.1528,-191 195.1528,-191 192.1528,-187 114.8472,-187 114.8472,-151 219.1528,-151 219.1528,-187"/>
<text text-anchor="middle" x="167" y="-164.8" font-family="Times,serif" font-size="14.00" fill="#000000">LayoutsModule</text>
</g>
<!-- AppLayoutComponent&#45;&gt;LayoutsModule -->
<g id="edge1" class="edge">
<title>AppLayoutComponent&#45;&gt;LayoutsModule</title>
<path fill="none" stroke="#000000" d="M361.2661,-122.0225C361.2661,-139.3734 361.2661,-163 361.2661,-163 361.2661,-163 229.3153,-163 229.3153,-163"/>
<polygon fill="#000000" stroke="#000000" points="229.3153,-159.5001 219.3153,-163 229.3153,-166.5001 229.3153,-159.5001"/>
</g>
<!-- SimpleLayoutComponent -->
<g id="node2" class="node">
<title>SimpleLayoutComponent</title>
<polygon fill="#ffffb3" stroke="#000000" points="246.1596,-122 85.8404,-122 85.8404,-86 246.1596,-86 246.1596,-122"/>
<text text-anchor="middle" x="166" y="-99.8" font-family="Times,serif" font-size="14.00" fill="#000000">SimpleLayoutComponent</text>
</g>
<!-- SimpleLayoutComponent&#45;&gt;LayoutsModule -->
<g id="edge2" class="edge">
<title>SimpleLayoutComponent&#45;&gt;LayoutsModule</title>
<path fill="none" stroke="#000000" d="M167,-122.1061C167,-122.1061 167,-140.991 167,-140.991"/>
<polygon fill="#000000" stroke="#000000" points="163.5001,-140.9909 167,-150.991 170.5001,-140.991 163.5001,-140.9909"/>
</g>
<!-- AppLayoutComponent  -->
<g id="node4" class="node">
<title>AppLayoutComponent </title>
<polygon fill="#fb8072" stroke="#000000" points="413.0973,-252 264.9027,-252 264.9027,-216 413.0973,-216 413.0973,-252"/>
<text text-anchor="middle" x="339" y="-229.8" font-family="Times,serif" font-size="14.00" fill="#000000">AppLayoutComponent </text>
</g>
<!-- LayoutsModule&#45;&gt;AppLayoutComponent  -->
<g id="edge3" class="edge">
<title>LayoutsModule&#45;&gt;AppLayoutComponent </title>
<path fill="none" stroke="#000000" stroke-dasharray="5,2" d="M219.2912,-175C261.1797,-175 312.9839,-175 312.9839,-175 312.9839,-175 312.9839,-205.9775 312.9839,-205.9775"/>
<polygon fill="#000000" stroke="#000000" points="309.484,-205.9774 312.9839,-215.9775 316.484,-205.9775 309.484,-205.9774"/>
</g>
<!-- SimpleLayoutComponent  -->
<g id="node5" class="node">
<title>SimpleLayoutComponent </title>
<polygon fill="#fb8072" stroke="#000000" points="247.1593,-252 82.8407,-252 82.8407,-216 247.1593,-216 247.1593,-252"/>
<text text-anchor="middle" x="165" y="-229.8" font-family="Times,serif" font-size="14.00" fill="#000000">SimpleLayoutComponent </text>
</g>
<!-- LayoutsModule&#45;&gt;SimpleLayoutComponent  -->
<g id="edge4" class="edge">
<title>LayoutsModule&#45;&gt;SimpleLayoutComponent </title>
<path fill="none" stroke="#000000" stroke-dasharray="5,2" d="M167,-187.1061C167,-187.1061 167,-205.991 167,-205.991"/>
<polygon fill="#000000" stroke="#000000" points="163.5001,-205.9909 167,-215.991 170.5001,-205.991 163.5001,-205.9909"/>
</g>
</g>
</svg>
