<?xml version="1.0" encoding="UTF-8" standalone="no"?>
<!DOCTYPE svg PUBLIC "-//W3C//DTD SVG 1.1//EN"
 "http://www.w3.org/Graphics/SVG/1.1/DTD/svg11.dtd">
<!-- Generated by graphviz version 2.40.1 (20161225.0304)
 -->
<!-- Title: dependencies Pages: 1 -->
<svg width="1832pt" height="366pt"
 viewBox="0.00 0.00 1832.00 366.00" xmlns="http://www.w3.org/2000/svg" xmlns:xlink="http://www.w3.org/1999/xlink">
<g id="graph0" class="graph" transform="scale(1 1) rotate(0) translate(4 362)">
<title>dependencies</title>
<polygon fill="#ffffff" stroke="transparent" points="-4,4 -4,-362 1828,-362 1828,4 -4,4"/>
<text text-anchor="start" x="891.0091" y="-42.4" font-family="sans-serif" font-weight="bold" font-size="14.00" fill="#000000">Legend</text>
<polygon fill="#ffffb3" stroke="transparent" points="678,-10 678,-30 698,-30 698,-10 678,-10"/>
<text text-anchor="start" x="701.629" y="-15.4" font-family="sans-serif" font-size="14.00" fill="#000000"> &#160;Declarations</text>
<polygon fill="#8dd3c7" stroke="transparent" points="791,-10 791,-30 811,-30 811,-10 791,-10"/>
<text text-anchor="start" x="814.7251" y="-15.4" font-family="sans-serif" font-size="14.00" fill="#000000"> &#160;Module</text>
<polygon fill="#80b1d3" stroke="transparent" points="877,-10 877,-30 897,-30 897,-10 877,-10"/>
<text text-anchor="start" x="900.7812" y="-15.4" font-family="sans-serif" font-size="14.00" fill="#000000"> &#160;Bootstrap</text>
<polygon fill="#fdb462" stroke="transparent" points="974,-10 974,-30 994,-30 994,-10 974,-10"/>
<text text-anchor="start" x="997.6732" y="-15.4" font-family="sans-serif" font-size="14.00" fill="#000000"> &#160;Providers</text>
<polygon fill="#fb8072" stroke="transparent" points="1070,-10 1070,-30 1090,-30 1090,-10 1070,-10"/>
<text text-anchor="start" x="1093.7258" y="-15.4" font-family="sans-serif" font-size="14.00" fill="#000000"> &#160;Exports</text>
<g id="clust1" class="cluster">
<title>cluster_AppModule</title>
<polygon fill="none" stroke="#000000" stroke-dasharray="1,5" points="498,-146 498,-350 1098,-350 1098,-146 498,-146"/>
</g>
<g id="clust2" class="cluster">
<title>cluster_AppModule_declarations</title>
<polygon fill="none" stroke="#000000" points="734,-154 734,-206 856,-206 856,-154 734,-154"/>
</g>
<g id="clust4" class="cluster">
<title>cluster_AppModule_imports</title>
<polygon fill="none" stroke="#000000" points="864,-154 864,-206 1090,-206 1090,-154 864,-154"/>
</g>
<g id="clust6" class="cluster">
<title>cluster_AppModule_bootstrap</title>
<polygon fill="none" stroke="#000000" points="793,-290 793,-342 917,-342 917,-290 793,-290"/>
</g>
<g id="clust7" class="cluster">
<title>cluster_AppModule_providers</title>
<polygon fill="none" stroke="#000000" points="506,-154 506,-206 726,-206 726,-154 506,-154"/>
</g>
<g id="clust8" class="cluster">
<title>cluster_AuthModule</title>
<polygon fill="none" stroke="#000000" stroke-dasharray="1,5" points="771,-70 771,-138 1057,-138 1057,-70 771,-70"/>
</g>
<g id="clust9" class="cluster">
<title>cluster_AuthModule_declarations</title>
<polygon fill="none" stroke="#000000" points="779,-78 779,-130 1049,-130 1049,-78 779,-78"/>
</g>
<g id="clust16" class="cluster">
<title>cluster_HomeModule</title>
<polygon fill="none" stroke="#000000" stroke-dasharray="1,5" points="1387,-70 1387,-206 1535,-206 1535,-70 1387,-70"/>
</g>
<g id="clust17" class="cluster">
<title>cluster_HomeModule_declarations</title>
<polygon fill="none" stroke="#000000" points="1395,-78 1395,-130 1527,-130 1527,-78 1395,-78"/>
</g>
<g id="clust23" class="cluster">
<title>cluster_LayoutsModule</title>
<polygon fill="none" stroke="#000000" stroke-dasharray="1,5" points="1106,-214 1106,-282 1816,-282 1816,-214 1106,-214"/>
</g>
<g id="clust24" class="cluster">
<title>cluster_LayoutsModule_declarations</title>
<polygon fill="none" stroke="#000000" points="1468,-222 1468,-274 1808,-274 1808,-222 1468,-222"/>
</g>
<g id="clust28" class="cluster">
<title>cluster_LayoutsModule_exports</title>
<polygon fill="none" stroke="#000000" points="1114,-222 1114,-274 1460,-274 1460,-222 1114,-222"/>
</g>
<g id="clust31" class="cluster">
<title>cluster_PostsModule</title>
<polygon fill="none" stroke="#000000" stroke-dasharray="1,5" points="8,-146 8,-274 490,-274 490,-146 8,-146"/>
</g>
<g id="clust32" class="cluster">
<title>cluster_PostsModule_declarations</title>
<polygon fill="none" stroke="#000000" points="16,-154 16,-206 482,-206 482,-154 16,-154"/>
</g>
<!-- AppComponent -->
<g id="node1" class="node">
<title>AppComponent</title>
<polygon fill="#ffffb3" stroke="#000000" points="847.9399,-198 742.0601,-198 742.0601,-162 847.9399,-162 847.9399,-198"/>
<text text-anchor="middle" x="795" y="-175.8" font-family="Times,serif" font-size="14.00" fill="#000000">AppComponent</text>
</g>
<!-- AppModule -->
<g id="node2" class="node">
<title>AppModule</title>
<polygon fill="#8dd3c7" stroke="#000000" points="896.6571,-266 893.6571,-270 872.6571,-270 869.6571,-266 813.3429,-266 813.3429,-230 896.6571,-230 896.6571,-266"/>
<text text-anchor="middle" x="855" y="-243.8" font-family="Times,serif" font-size="14.00" fill="#000000">AppModule</text>
</g>
<!-- AppComponent&#45;&gt;AppModule -->
<g id="edge1" class="edge">
<title>AppComponent&#45;&gt;AppModule</title>
<path fill="none" stroke="#000000" d="M830.4457,-198.2228C830.4457,-198.2228 830.4457,-219.7269 830.4457,-219.7269"/>
<polygon fill="#000000" stroke="#000000" points="826.9457,-219.7269 830.4457,-229.7269 833.9457,-219.727 826.9457,-219.7269"/>
</g>
<!-- AppComponent  -->
<g id="node5" class="node">
<title>AppComponent </title>
<polygon fill="#80b1d3" stroke="#000000" points="909.439,-334 800.561,-334 800.561,-298 909.439,-298 909.439,-334"/>
<text text-anchor="middle" x="855" y="-311.8" font-family="Times,serif" font-size="14.00" fill="#000000">AppComponent </text>
</g>
<!-- AppModule&#45;&gt;AppComponent  -->
<g id="edge4" class="edge">
<title>AppModule&#45;&gt;AppComponent </title>
<path fill="none" stroke="#000000" stroke-dasharray="1,5" d="M855,-266.2228C855,-266.2228 855,-287.7269 855,-287.7269"/>
<polygon fill="#000000" stroke="#000000" points="851.5001,-287.7269 855,-297.7269 858.5001,-287.727 851.5001,-287.7269"/>
</g>
<!-- AuthModule -->
<g id="node3" class="node">
<title>AuthModule</title>
<polygon fill="#8dd3c7" stroke="#000000" points="959.5482,-198 956.5482,-202 935.5482,-202 932.5482,-198 872.4518,-198 872.4518,-162 959.5482,-162 959.5482,-198"/>
<text text-anchor="middle" x="916" y="-175.8" font-family="Times,serif" font-size="14.00" fill="#000000">AuthModule</text>
</g>
<!-- AuthModule&#45;&gt;AppModule -->
<g id="edge2" class="edge">
<title>AuthModule&#45;&gt;AppModule</title>
<path fill="none" stroke="#000000" d="M884.5274,-198.2228C884.5274,-198.2228 884.5274,-219.7269 884.5274,-219.7269"/>
<polygon fill="#000000" stroke="#000000" points="881.0274,-219.7269 884.5274,-229.7269 888.0274,-219.727 881.0274,-219.7269"/>
</g>
<!-- LayoutsModule -->
<g id="node4" class="node">
<title>LayoutsModule</title>
<polygon fill="#8dd3c7" stroke="#000000" points="1082.1528,-198 1079.1528,-202 1058.1528,-202 1055.1528,-198 977.8472,-198 977.8472,-162 1082.1528,-162 1082.1528,-198"/>
<text text-anchor="middle" x="1030" y="-175.8" font-family="Times,serif" font-size="14.00" fill="#000000">LayoutsModule</text>
</g>
<!-- LayoutsModule&#45;&gt;AppModule -->
<g id="edge3" class="edge">
<title>LayoutsModule&#45;&gt;AppModule</title>
<path fill="none" stroke="#000000" d="M1040.4652,-198.2667C1040.4652,-216.5552 1040.4652,-242 1040.4652,-242 1040.4652,-242 907.0849,-242 907.0849,-242"/>
<polygon fill="#000000" stroke="#000000" points="907.085,-238.5001 897.0849,-242 907.0849,-245.5001 907.085,-238.5001"/>
</g>
<!-- AppLayoutComponent  -->
<g id="node13" class="node">
<title>AppLayoutComponent </title>
<polygon fill="#fb8072" stroke="#000000" points="1452.0973,-266 1303.9027,-266 1303.9027,-230 1452.0973,-230 1452.0973,-266"/>
<text text-anchor="middle" x="1378" y="-243.8" font-family="Times,serif" font-size="14.00" fill="#000000">AppLayoutComponent </text>
</g>
<!-- LayoutsModule&#45;&gt;AppLayoutComponent  -->
<g id="edge11" class="edge">
<title>LayoutsModule&#45;&gt;AppLayoutComponent </title>
<path fill="none" stroke="#000000" stroke-dasharray="5,2" d="M1082.3297,-180C1173.8772,-180 1353.4648,-180 1353.4648,-180 1353.4648,-180 1353.4648,-219.7772 1353.4648,-219.7772"/>
<polygon fill="#000000" stroke="#000000" points="1349.9648,-219.7772 1353.4648,-229.7772 1356.9648,-219.7773 1349.9648,-219.7772"/>
</g>
<!-- SimpleLayoutComponent  -->
<g id="node14" class="node">
<title>SimpleLayoutComponent </title>
<polygon fill="#fb8072" stroke="#000000" points="1286.1593,-266 1121.8407,-266 1121.8407,-230 1286.1593,-230 1286.1593,-266"/>
<text text-anchor="middle" x="1204" y="-243.8" font-family="Times,serif" font-size="14.00" fill="#000000">SimpleLayoutComponent </text>
</g>
<!-- LayoutsModule&#45;&gt;SimpleLayoutComponent  -->
<g id="edge12" class="edge">
<title>LayoutsModule&#45;&gt;SimpleLayoutComponent </title>
<path fill="none" stroke="#000000" stroke-dasharray="5,2" d="M1061.3957,-198.2921C1061.3957,-220.2057 1061.3957,-254 1061.3957,-254 1061.3957,-254 1111.8727,-254 1111.8727,-254"/>
<polygon fill="#000000" stroke="#000000" points="1111.8728,-257.5001 1121.8727,-254 1111.8727,-250.5001 1111.8728,-257.5001"/>
</g>
<!-- AuthInterceptorService -->
<g id="node6" class="node">
<title>AuthInterceptorService</title>
<ellipse fill="#fdb462" stroke="#000000" cx="616" cy="-180" rx="101.8225" ry="18"/>
<text text-anchor="middle" x="616" y="-175.8" font-family="Times,serif" font-size="14.00" fill="#000000">AuthInterceptorService</text>
</g>
<!-- AuthInterceptorService&#45;&gt;AppModule -->
<g id="edge5" class="edge">
<title>AuthInterceptorService&#45;&gt;AppModule</title>
<path fill="none" stroke="#000000" d="M649.887,-197.1631C649.887,-219.0234 649.887,-254 649.887,-254 649.887,-254 802.9974,-254 802.9974,-254"/>
<polygon fill="#000000" stroke="#000000" points="802.9974,-257.5001 812.9974,-254 802.9973,-250.5001 802.9974,-257.5001"/>
</g>
<!-- PostsModule -->
<g id="node18" class="node">
<title>PostsModule</title>
<polygon fill="#8dd3c7" stroke="#000000" points="367.6123,-266 364.6123,-270 343.6123,-270 340.6123,-266 278.3877,-266 278.3877,-230 367.6123,-230 367.6123,-266"/>
<text text-anchor="middle" x="323" y="-243.8" font-family="Times,serif" font-size="14.00" fill="#000000">PostsModule</text>
</g>
<!-- AuthInterceptorService&#45;&gt;PostsModule -->
<g id="edge16" class="edge">
<title>AuthInterceptorService&#45;&gt;PostsModule</title>
<path fill="none" stroke="#000000" d="M582.113,-197.2705C582.113,-215.6158 582.113,-242 582.113,-242 582.113,-242 377.8382,-242 377.8382,-242"/>
<polygon fill="#000000" stroke="#000000" points="377.8383,-238.5001 367.8382,-242 377.8382,-245.5001 377.8383,-238.5001"/>
</g>
<!-- LoginComponent -->
<g id="node7" class="node">
<title>LoginComponent</title>
<polygon fill="#ffffb3" stroke="#000000" points="1041.2758,-122 926.7242,-122 926.7242,-86 1041.2758,-86 1041.2758,-122"/>
<text text-anchor="middle" x="984" y="-99.8" font-family="Times,serif" font-size="14.00" fill="#000000">LoginComponent</text>
</g>
<!-- LoginComponent&#45;&gt;AuthModule -->
<g id="edge6" class="edge">
<title>LoginComponent&#45;&gt;AuthModule</title>
<path fill="none" stroke="#000000" d="M943.1929,-122.0109C943.1929,-122.0109 943.1929,-151.855 943.1929,-151.855"/>
<polygon fill="#000000" stroke="#000000" points="939.6929,-151.8549 943.1929,-161.855 946.6929,-151.855 939.6929,-151.8549"/>
</g>
<!-- SignupComponent -->
<g id="node8" class="node">
<title>SignupComponent</title>
<polygon fill="#ffffb3" stroke="#000000" points="908.5056,-122 787.4944,-122 787.4944,-86 908.5056,-86 908.5056,-122"/>
<text text-anchor="middle" x="848" y="-99.8" font-family="Times,serif" font-size="14.00" fill="#000000">SignupComponent</text>
</g>
<!-- SignupComponent&#45;&gt;AuthModule -->
<g id="edge7" class="edge">
<title>SignupComponent&#45;&gt;AuthModule</title>
<path fill="none" stroke="#000000" d="M890.3647,-122.0109C890.3647,-122.0109 890.3647,-151.855 890.3647,-151.855"/>
<polygon fill="#000000" stroke="#000000" points="886.8647,-151.8549 890.3647,-161.855 893.8647,-151.855 886.8647,-151.8549"/>
</g>
<!-- HomeComponent -->
<g id="node9" class="node">
<title>HomeComponent</title>
<polygon fill="#ffffb3" stroke="#000000" points="1518.5451,-122 1403.4549,-122 1403.4549,-86 1518.5451,-86 1518.5451,-122"/>
<text text-anchor="middle" x="1461" y="-99.8" font-family="Times,serif" font-size="14.00" fill="#000000">HomeComponent</text>
</g>
<!-- HomeModule -->
<g id="node10" class="node">
<title>HomeModule</title>
<polygon fill="#8dd3c7" stroke="#000000" points="1507.7619,-198 1504.7619,-202 1483.7619,-202 1480.7619,-198 1414.2381,-198 1414.2381,-162 1507.7619,-162 1507.7619,-198"/>
<text text-anchor="middle" x="1461" y="-175.8" font-family="Times,serif" font-size="14.00" fill="#000000">HomeModule</text>
</g>
<!-- HomeComponent&#45;&gt;HomeModule -->
<g id="edge8" class="edge">
<title>HomeComponent&#45;&gt;HomeModule</title>
<path fill="none" stroke="#000000" d="M1461,-122.0109C1461,-122.0109 1461,-151.855 1461,-151.855"/>
<polygon fill="#000000" stroke="#000000" points="1457.5001,-151.8549 1461,-161.855 1464.5001,-151.855 1457.5001,-151.8549"/>
</g>
<!-- AppLayoutComponent -->
<g id="node11" class="node">
<title>AppLayoutComponent</title>
<polygon fill="#ffffb3" stroke="#000000" points="1799.5968,-266 1654.4032,-266 1654.4032,-230 1799.5968,-230 1799.5968,-266"/>
<text text-anchor="middle" x="1727" y="-243.8" font-family="Times,serif" font-size="14.00" fill="#000000">AppLayoutComponent</text>
</g>
<!-- AppLayoutComponent&#45;&gt;LayoutsModule -->
<g id="edge9" class="edge">
<title>AppLayoutComponent&#45;&gt;LayoutsModule</title>
<path fill="none" stroke="#000000" d="M1727,-229.8701C1727,-219.6855 1727,-209 1727,-209 1727,-209 1019.5348,-209 1019.5348,-209 1019.5348,-209 1019.5348,-207.9201 1019.5348,-207.9201"/>
<polygon fill="#000000" stroke="#000000" points="1023.0349,-208.2014 1019.5348,-198.2015 1016.0349,-208.2015 1023.0349,-208.2014"/>
</g>
<!-- SimpleLayoutComponent -->
<g id="node12" class="node">
<title>SimpleLayoutComponent</title>
<polygon fill="#ffffb3" stroke="#000000" points="1636.1596,-266 1475.8404,-266 1475.8404,-230 1636.1596,-230 1636.1596,-266"/>
<text text-anchor="middle" x="1556" y="-243.8" font-family="Times,serif" font-size="14.00" fill="#000000">SimpleLayoutComponent</text>
</g>
<!-- SimpleLayoutComponent&#45;&gt;LayoutsModule -->
<g id="edge10" class="edge">
<title>SimpleLayoutComponent&#45;&gt;LayoutsModule</title>
<path fill="none" stroke="#000000" d="M1491.7756,-229.793C1491.7756,-224.4451 1491.7756,-220 1491.7756,-220 1491.7756,-220 998.6043,-220 998.6043,-220 998.6043,-220 998.6043,-208.1274 998.6043,-208.1274"/>
<polygon fill="#000000" stroke="#000000" points="1002.1044,-208.1274 998.6043,-198.1274 995.1044,-208.1275 1002.1044,-208.1274"/>
</g>
<!-- CreatePostComponent -->
<g id="node15" class="node">
<title>CreatePostComponent</title>
<polygon fill="#ffffb3" stroke="#000000" points="473.9818,-198 332.0182,-198 332.0182,-162 473.9818,-162 473.9818,-198"/>
<text text-anchor="middle" x="403" y="-175.8" font-family="Times,serif" font-size="14.00" fill="#000000">CreatePostComponent</text>
</g>
<!-- CreatePostComponent&#45;&gt;PostsModule -->
<g id="edge13" class="edge">
<title>CreatePostComponent&#45;&gt;PostsModule</title>
<path fill="none" stroke="#000000" d="M349.7826,-198.2228C349.7826,-198.2228 349.7826,-219.7269 349.7826,-219.7269"/>
<polygon fill="#000000" stroke="#000000" points="346.2827,-219.7269 349.7826,-229.7269 353.2827,-219.727 346.2827,-219.7269"/>
</g>
<!-- PostDetailComponent -->
<g id="node16" class="node">
<title>PostDetailComponent</title>
<polygon fill="#ffffb3" stroke="#000000" points="313.6582,-198 174.3418,-198 174.3418,-162 313.6582,-162 313.6582,-198"/>
<text text-anchor="middle" x="244" y="-175.8" font-family="Times,serif" font-size="14.00" fill="#000000">PostDetailComponent</text>
</g>
<!-- PostDetailComponent&#45;&gt;PostsModule -->
<g id="edge14" class="edge">
<title>PostDetailComponent&#45;&gt;PostsModule</title>
<path fill="none" stroke="#000000" d="M296.1364,-198.2228C296.1364,-198.2228 296.1364,-219.7269 296.1364,-219.7269"/>
<polygon fill="#000000" stroke="#000000" points="292.6365,-219.7269 296.1364,-229.7269 299.6365,-219.727 292.6365,-219.7269"/>
</g>
<!-- PostsListComponent -->
<g id="node17" class="node">
<title>PostsListComponent</title>
<polygon fill="#ffffb3" stroke="#000000" points="156.1736,-198 23.8264,-198 23.8264,-162 156.1736,-162 156.1736,-198"/>
<text text-anchor="middle" x="90" y="-175.8" font-family="Times,serif" font-size="14.00" fill="#000000">PostsListComponent</text>
</g>
<!-- PostsListComponent&#45;&gt;PostsModule -->
<g id="edge15" class="edge">
<title>PostsListComponent&#45;&gt;PostsModule</title>
<path fill="none" stroke="#000000" d="M90,-198.2228C90,-218.3652 90,-248 90,-248 90,-248 268.3509,-248 268.3509,-248"/>
<polygon fill="#000000" stroke="#000000" points="268.351,-251.5001 278.3509,-248 268.3509,-244.5001 268.351,-251.5001"/>
</g>
</g>
</svg>
