<?xml version="1.0" encoding="UTF-8" standalone="no"?>
<!DOCTYPE svg PUBLIC "-//W3C//DTD SVG 1.1//EN"
 "http://www.w3.org/Graphics/SVG/1.1/DTD/svg11.dtd">
<!-- Generated by graphviz version 2.40.1 (20161225.0304)
 -->
<!-- Title: dependencies Pages: 1 -->
<svg width="1494pt" height="290pt"
 viewBox="0.00 0.00 1494.00 290.00" xmlns="http://www.w3.org/2000/svg" xmlns:xlink="http://www.w3.org/1999/xlink">
<g id="graph0" class="graph" transform="scale(1 1) rotate(0) translate(4 286)">
<title>dependencies</title>
<polygon fill="#ffffff" stroke="transparent" points="-4,4 -4,-286 1490,-286 1490,4 -4,4"/>
<text text-anchor="start" x="722.0091" y="-42.4" font-family="sans-serif" font-weight="bold" font-size="14.00" fill="#000000">Legend</text>
<polygon fill="#ffffb3" stroke="transparent" points="509,-10 509,-30 529,-30 529,-10 509,-10"/>
<text text-anchor="start" x="532.629" y="-15.4" font-family="sans-serif" font-size="14.00" fill="#000000"> &#160;Declarations</text>
<polygon fill="#8dd3c7" stroke="transparent" points="622,-10 622,-30 642,-30 642,-10 622,-10"/>
<text text-anchor="start" x="645.7251" y="-15.4" font-family="sans-serif" font-size="14.00" fill="#000000"> &#160;Module</text>
<polygon fill="#80b1d3" stroke="transparent" points="708,-10 708,-30 728,-30 728,-10 708,-10"/>
<text text-anchor="start" x="731.7812" y="-15.4" font-family="sans-serif" font-size="14.00" fill="#000000"> &#160;Bootstrap</text>
<polygon fill="#fdb462" stroke="transparent" points="805,-10 805,-30 825,-30 825,-10 805,-10"/>
<text text-anchor="start" x="828.6732" y="-15.4" font-family="sans-serif" font-size="14.00" fill="#000000"> &#160;Providers</text>
<polygon fill="#fb8072" stroke="transparent" points="901,-10 901,-30 921,-30 921,-10 901,-10"/>
<text text-anchor="start" x="924.7258" y="-15.4" font-family="sans-serif" font-size="14.00" fill="#000000"> &#160;Exports</text>
<g id="clust1" class="cluster">
<title>cluster_AppModule</title>
<polygon fill="none" stroke="#000000" stroke-dasharray="1,5" points="8,-70 8,-274 274,-274 274,-70 8,-70"/>
</g>
<g id="clust2" class="cluster">
<title>cluster_AppModule_declarations</title>
<polygon fill="none" stroke="#000000" points="16,-78 16,-130 138,-130 138,-78 16,-78"/>
</g>
<g id="clust4" class="cluster">
<title>cluster_AppModule_imports</title>
<polygon fill="none" stroke="#000000" points="146,-78 146,-130 266,-130 266,-78 146,-78"/>
</g>
<g id="clust6" class="cluster">
<title>cluster_AppModule_bootstrap</title>
<polygon fill="none" stroke="#000000" points="79,-214 79,-266 203,-266 203,-214 79,-214"/>
</g>
<g id="clust8" class="cluster">
<title>cluster_HomeModule</title>
<polygon fill="none" stroke="#000000" stroke-dasharray="1,5" points="1000,-70 1000,-198 1148,-198 1148,-70 1000,-70"/>
</g>
<g id="clust9" class="cluster">
<title>cluster_HomeModule_declarations</title>
<polygon fill="none" stroke="#000000" points="1008,-78 1008,-130 1140,-130 1140,-78 1008,-78"/>
</g>
<g id="clust15" class="cluster">
<title>cluster_LayoutsModule</title>
<polygon fill="none" stroke="#000000" stroke-dasharray="1,5" points="282,-138 282,-206 992,-206 992,-138 282,-138"/>
</g>
<g id="clust16" class="cluster">
<title>cluster_LayoutsModule_declarations</title>
<polygon fill="none" stroke="#000000" points="644,-146 644,-198 984,-198 984,-146 644,-146"/>
</g>
<g id="clust20" class="cluster">
<title>cluster_LayoutsModule_exports</title>
<polygon fill="none" stroke="#000000" points="290,-146 290,-198 636,-198 636,-146 290,-146"/>
</g>
<g id="clust23" class="cluster">
<title>cluster_PostsModule</title>
<polygon fill="none" stroke="#000000" stroke-dasharray="1,5" points="1156,-70 1156,-198 1478,-198 1478,-70 1156,-70"/>
</g>
<g id="clust24" class="cluster">
<title>cluster_PostsModule_declarations</title>
<polygon fill="none" stroke="#000000" points="1164,-78 1164,-130 1470,-130 1470,-78 1164,-78"/>
</g>
<!-- AppComponent -->
<g id="node1" class="node">
<title>AppComponent</title>
<polygon fill="#ffffb3" stroke="#000000" points="129.9399,-122 24.0601,-122 24.0601,-86 129.9399,-86 129.9399,-122"/>
<text text-anchor="middle" x="77" y="-99.8" font-family="Times,serif" font-size="14.00" fill="#000000">AppComponent</text>
</g>
<!-- AppModule -->
<g id="node2" class="node">
<title>AppModule</title>
<polygon fill="#8dd3c7" stroke="#000000" points="182.6571,-190 179.6571,-194 158.6571,-194 155.6571,-190 99.3429,-190 99.3429,-154 182.6571,-154 182.6571,-190"/>
<text text-anchor="middle" x="141" y="-167.8" font-family="Times,serif" font-size="14.00" fill="#000000">AppModule</text>
</g>
<!-- AppComponent&#45;&gt;AppModule -->
<g id="edge1" class="edge">
<title>AppComponent&#45;&gt;AppModule</title>
<path fill="none" stroke="#000000" d="M114.4457,-122.2228C114.4457,-122.2228 114.4457,-143.7269 114.4457,-143.7269"/>
<polygon fill="#000000" stroke="#000000" points="110.9457,-143.7269 114.4457,-153.7269 117.9457,-143.727 110.9457,-143.7269"/>
</g>
<!-- AppComponent  -->
<g id="node4" class="node">
<title>AppComponent </title>
<polygon fill="#80b1d3" stroke="#000000" points="195.439,-258 86.561,-258 86.561,-222 195.439,-222 195.439,-258"/>
<text text-anchor="middle" x="141" y="-235.8" font-family="Times,serif" font-size="14.00" fill="#000000">AppComponent </text>
</g>
<!-- AppModule&#45;&gt;AppComponent  -->
<g id="edge3" class="edge">
<title>AppModule&#45;&gt;AppComponent </title>
<path fill="none" stroke="#000000" stroke-dasharray="1,5" d="M141,-190.2228C141,-190.2228 141,-211.7269 141,-211.7269"/>
<polygon fill="#000000" stroke="#000000" points="137.5001,-211.7269 141,-221.7269 144.5001,-211.727 137.5001,-211.7269"/>
</g>
<!-- LayoutsModule -->
<g id="node3" class="node">
<title>LayoutsModule</title>
<polygon fill="#8dd3c7" stroke="#000000" points="258.1528,-122 255.1528,-126 234.1528,-126 231.1528,-122 153.8472,-122 153.8472,-86 258.1528,-86 258.1528,-122"/>
<text text-anchor="middle" x="206" y="-99.8" font-family="Times,serif" font-size="14.00" fill="#000000">LayoutsModule</text>
</g>
<!-- LayoutsModule&#45;&gt;AppModule -->
<g id="edge2" class="edge">
<title>LayoutsModule&#45;&gt;AppModule</title>
<path fill="none" stroke="#000000" d="M168.2511,-122.2228C168.2511,-122.2228 168.2511,-143.7269 168.2511,-143.7269"/>
<polygon fill="#000000" stroke="#000000" points="164.7511,-143.7269 168.2511,-153.7269 171.7511,-143.727 164.7511,-143.7269"/>
</g>
<!-- AppLayoutComponent  -->
<g id="node9" class="node">
<title>AppLayoutComponent </title>
<polygon fill="#fb8072" stroke="#000000" points="628.0973,-190 479.9027,-190 479.9027,-154 628.0973,-154 628.0973,-190"/>
<text text-anchor="middle" x="554" y="-167.8" font-family="Times,serif" font-size="14.00" fill="#000000">AppLayoutComponent </text>
</g>
<!-- LayoutsModule&#45;&gt;AppLayoutComponent  -->
<g id="edge7" class="edge">
<title>LayoutsModule&#45;&gt;AppLayoutComponent </title>
<path fill="none" stroke="#000000" stroke-dasharray="5,2" d="M258.4759,-113C355.6929,-113 554,-113 554,-113 554,-113 554,-143.9775 554,-143.9775"/>
<polygon fill="#000000" stroke="#000000" points="550.5001,-143.9774 554,-153.9775 557.5001,-143.9775 550.5001,-143.9774"/>
</g>
<!-- SimpleLayoutComponent  -->
<g id="node10" class="node">
<title>SimpleLayoutComponent </title>
<polygon fill="#fb8072" stroke="#000000" points="462.1593,-190 297.8407,-190 297.8407,-154 462.1593,-154 462.1593,-190"/>
<text text-anchor="middle" x="380" y="-167.8" font-family="Times,serif" font-size="14.00" fill="#000000">SimpleLayoutComponent </text>
</g>
<!-- LayoutsModule&#45;&gt;SimpleLayoutComponent  -->
<g id="edge8" class="edge">
<title>LayoutsModule&#45;&gt;SimpleLayoutComponent </title>
<path fill="none" stroke="#000000" stroke-dasharray="5,2" d="M226.8978,-122.2228C226.8978,-142.3652 226.8978,-172 226.8978,-172 226.8978,-172 287.6229,-172 287.6229,-172"/>
<polygon fill="#000000" stroke="#000000" points="287.6229,-175.5001 297.6229,-172 287.6228,-168.5001 287.6229,-175.5001"/>
</g>
<!-- HomeComponent -->
<g id="node5" class="node">
<title>HomeComponent</title>
<polygon fill="#ffffb3" stroke="#000000" points="1131.5451,-122 1016.4549,-122 1016.4549,-86 1131.5451,-86 1131.5451,-122"/>
<text text-anchor="middle" x="1074" y="-99.8" font-family="Times,serif" font-size="14.00" fill="#000000">HomeComponent</text>
</g>
<!-- HomeModule -->
<g id="node6" class="node">
<title>HomeModule</title>
<polygon fill="#8dd3c7" stroke="#000000" points="1120.7619,-190 1117.7619,-194 1096.7619,-194 1093.7619,-190 1027.2381,-190 1027.2381,-154 1120.7619,-154 1120.7619,-190"/>
<text text-anchor="middle" x="1074" y="-167.8" font-family="Times,serif" font-size="14.00" fill="#000000">HomeModule</text>
</g>
<!-- HomeComponent&#45;&gt;HomeModule -->
<g id="edge4" class="edge">
<title>HomeComponent&#45;&gt;HomeModule</title>
<path fill="none" stroke="#000000" d="M1074,-122.2228C1074,-122.2228 1074,-143.7269 1074,-143.7269"/>
<polygon fill="#000000" stroke="#000000" points="1070.5001,-143.7269 1074,-153.7269 1077.5001,-143.727 1070.5001,-143.7269"/>
</g>
<!-- AppLayoutComponent -->
<g id="node7" class="node">
<title>AppLayoutComponent</title>
<polygon fill="#ffffb3" stroke="#000000" points="975.5968,-190 830.4032,-190 830.4032,-154 975.5968,-154 975.5968,-190"/>
<text text-anchor="middle" x="903" y="-167.8" font-family="Times,serif" font-size="14.00" fill="#000000">AppLayoutComponent</text>
</g>
<!-- AppLayoutComponent&#45;&gt;LayoutsModule -->
<g id="edge5" class="edge">
<title>AppLayoutComponent&#45;&gt;LayoutsModule</title>
<path fill="none" stroke="#000000" d="M903,-153.7521C903,-130.9821 903,-95 903,-95 903,-95 268.3883,-95 268.3883,-95"/>
<polygon fill="#000000" stroke="#000000" points="268.3883,-91.5001 258.3883,-95 268.3882,-98.5001 268.3883,-91.5001"/>
</g>
<!-- SimpleLayoutComponent -->
<g id="node8" class="node">
<title>SimpleLayoutComponent</title>
<polygon fill="#ffffb3" stroke="#000000" points="812.1596,-190 651.8404,-190 651.8404,-154 812.1596,-154 812.1596,-190"/>
<text text-anchor="middle" x="732" y="-167.8" font-family="Times,serif" font-size="14.00" fill="#000000">SimpleLayoutComponent</text>
</g>
<!-- SimpleLayoutComponent&#45;&gt;LayoutsModule -->
<g id="edge6" class="edge">
<title>SimpleLayoutComponent&#45;&gt;LayoutsModule</title>
<path fill="none" stroke="#000000" d="M732,-153.7772C732,-133.6348 732,-104 732,-104 732,-104 268.3579,-104 268.3579,-104"/>
<polygon fill="#000000" stroke="#000000" points="268.3579,-100.5001 258.3579,-104 268.3579,-107.5001 268.3579,-100.5001"/>
</g>
<!-- PostDetailComponent -->
<g id="node11" class="node">
<title>PostDetailComponent</title>
<polygon fill="#ffffb3" stroke="#000000" points="1461.6582,-122 1322.3418,-122 1322.3418,-86 1461.6582,-86 1461.6582,-122"/>
<text text-anchor="middle" x="1392" y="-99.8" font-family="Times,serif" font-size="14.00" fill="#000000">PostDetailComponent</text>
</g>
<!-- PostsModule -->
<g id="node13" class="node">
<title>PostsModule</title>
<polygon fill="#8dd3c7" stroke="#000000" points="1359.6123,-190 1356.6123,-194 1335.6123,-194 1332.6123,-190 1270.3877,-190 1270.3877,-154 1359.6123,-154 1359.6123,-190"/>
<text text-anchor="middle" x="1315" y="-167.8" font-family="Times,serif" font-size="14.00" fill="#000000">PostsModule</text>
</g>
<!-- PostDetailComponent&#45;&gt;PostsModule -->
<g id="edge9" class="edge">
<title>PostDetailComponent&#45;&gt;PostsModule</title>
<path fill="none" stroke="#000000" d="M1340.8636,-122.2228C1340.8636,-122.2228 1340.8636,-143.7269 1340.8636,-143.7269"/>
<polygon fill="#000000" stroke="#000000" points="1337.3637,-143.7269 1340.8636,-153.7269 1344.3637,-143.727 1337.3637,-143.7269"/>
</g>
<!-- PostsListComponent -->
<g id="node12" class="node">
<title>PostsListComponent</title>
<polygon fill="#ffffb3" stroke="#000000" points="1304.1736,-122 1171.8264,-122 1171.8264,-86 1304.1736,-86 1304.1736,-122"/>
<text text-anchor="middle" x="1238" y="-99.8" font-family="Times,serif" font-size="14.00" fill="#000000">PostsListComponent</text>
</g>
<!-- PostsListComponent&#45;&gt;PostsModule -->
<g id="edge10" class="edge">
<title>PostsListComponent&#45;&gt;PostsModule</title>
<path fill="none" stroke="#000000" d="M1287.3903,-122.2228C1287.3903,-122.2228 1287.3903,-143.7269 1287.3903,-143.7269"/>
<polygon fill="#000000" stroke="#000000" points="1283.8903,-143.7269 1287.3903,-153.7269 1290.8903,-143.727 1283.8903,-143.7269"/>
</g>
</g>
</svg>
